<?xml version="1.0" encoding="utf-8"?>
<!DOCTYPE svg PUBLIC "-//W3C//DTD SVG 1.1//EN" "http://www.w3.org/Graphics/SVG/1.1/DTD/svg11.dtd">
<svg version="1.1" id="图形" xmlns="http://www.w3.org/2000/svg" xmlns:xlink="http://www.w3.org/1999/xlink" x="10px" y="10px" width="1024px" height="1024px" viewBox="0 0 1024 1024" enable-background="new 0 0 1024 1024" xml:space="preserve">
  <path fill="#56abe4" d="M511.432577 747.51636c-247.091608 0-447.430402-200.26614-447.430402-447.430402 0-247.019976 200.338794-447.430402 447.430402-447.430402 247.091608 0 447.431425 200.411449 447.431425 447.430402C958.864002 547.25022 758.524185 747.51636 511.432577 747.51636L511.432577 747.51636zM571.877227-31.992253c-13.764492-13.034874-30.440289-19.517519-50.103118-19.517519-20.391423 0-37.431517 6.482645-51.194986 19.517519-13.690814 12.963243-20.535709 28.838815-20.535709 47.555086 0 19.370163 6.844895 35.611056 20.535709 48.573275 13.763468 13.108552 30.804586 19.516496 51.194986 19.516496 19.662829 0 36.338626-6.408967 50.103118-19.516496 13.690814-12.96222 20.535709-29.203112 20.535709-48.573275C592.412936-3.153438 585.567018-19.02901 571.877227-31.992253L571.877227-31.992253zM695.749466 358.709123c-13.400195-23.667026-27.963888-44.349067-43.766806-62.118779-15.802918-17.696034-30.222325-32.478715-43.185568-44.568055-13.034874-12.016685-19.516496-22.358217-19.516496-31.022551l0-32.116465c0-7.355525-6.844895-12.671601-20.535709-16.020882-13.763468-3.276626-28.692482-5.170766-44.858674-5.461385-16.167215-0.364297-31.168883 1.019213-44.859697 3.932566-13.690814 3.058662-20.536732 7.573489-20.536732 13.544481l0 73.115228c0 6.700609 6.845918 15.876596 20.536732 27.52796 13.690814 11.796674 28.693506 25.051559 44.859697 40.198537 16.166191 15.000646 31.095205 31.459502 44.858674 49.519834 13.690814 18.060331 20.535709 36.703947 20.535709 56.147788 0 23.376407-9.685593 43.766806-28.983101 61.099566-19.37221 17.33276-45.587268 26.071795-78.649268 26.071795-21.046339 0-37.576827-3.203972-49.520857-9.53926-11.943007-6.336312-20.973684-14.347776-26.872021-24.106024-6.04467-9.612938-9.53926-19.808138-10.559497-30.512944-1.019213-10.704806-1.601474-20.317745-1.601474-29.057803 0-13.982456-6.991228-25.196869-21.118993-33.498952-13.982456-8.447393-29.274744-13.108552-45.87891-14.127765-16.457834-0.946558-31.751145 1.893116-45.87891 8.592702-13.982456 6.699586-21.046339 18.060331-21.046339 34.082236 0 17.331737 2.258437 38.524408 6.844895 63.574944 4.588505 25.051559 14.419408 49.301869 29.494755 72.605621 15.146978 23.450085 37.286208 43.2572 66.415642 59.716057 29.274744 16.312524 68.455091 24.469298 117.683283 24.469298 42.165332 0 78.212316-6.335289 108.070344-19.080567 29.858028-12.671601 54.327326-28.692482 73.261561-48.063669 19.006889-19.371186 32.915667-40.781822 41.654702-64.084551 8.81169-23.376407 13.253862-45.733601 13.253862-67.144236C715.849246 410.341061 709.149661 382.376149 695.749466 358.709123L695.749466 358.709123zM695.749466 358.709123" transform="translate(0, 812) scale(1, -1)"/>
</svg>
